<svg width="118" height="21" viewBox="0 0 118 21" fill="none" xmlns="http://www.w3.org/2000/svg">
<path d="M16.5138 19.7297L5.78057 7.87794V19.7297H0.96994V1.08417H5.46497L15.8501 12.5637V1.08417H20.6637V19.7297H16.5138Z" fill="#94A0AC"/>
<path d="M113.853 19.7297L103.12 7.87794V19.7297H98.3062V1.08417H102.801L113.186 12.5637V1.08417H118V19.7297H113.853Z" fill="#94A0AC"/>
<path d="M56.7065 19.7297H52.6333L44.1564 1.08417H49.2502L54.7304 14.1226L60.2105 1.08417H65.1834L56.7065 19.7297Z" fill="#94A0AC"/>
<path d="M71.9525 1.08417H67.1183V19.7297H71.9525V1.08417Z" fill="#94A0AC"/>
<path d="M28.8338 6.72175H23.9671C24.2591 5.33066 24.9464 3.61925 26.194 2.50271C28.005 0.882823 30.2968 0.409973 33.5117 0.409973C36.7267 0.409973 39.3635 0.904177 41.1774 2.50271C42.549 3.71077 43.6668 5.45878 43.6757 7.78642V19.7297H38.8414V18.0274C38.4905 18.2013 37.8534 18.8236 35.9716 19.5924C34.4496 20.2117 32.8097 20.41 30.869 20.41C28.5418 20.41 27.073 19.5833 25.7339 18.5918C24.3535 17.5637 23.566 15.8493 23.566 14.0921C23.566 11.9627 23.9819 10.4832 26.0347 9.48563C27.9106 8.57654 30.167 8.40875 33.0988 8.40875H38.8414C38.8414 6.03535 37.4552 3.56434 33.6061 3.56434C30.9073 3.56434 29.4915 5.16897 28.8338 6.7187M33.4321 11.4197C30.63 11.4655 28.2999 12.1488 28.4002 13.8511C28.5418 16.2764 30.9368 16.5021 31.9573 16.5021C34.5204 16.5021 36.4022 16.0232 37.4729 15.1354C38.6261 14.1775 38.6733 12.823 38.6822 11.4167C38.6822 11.4167 34.6355 11.3984 33.4321 11.4167" fill="#94A0AC"/>
<path d="M85.119 16.9933C81.8008 16.9933 79.7863 15.0225 79.5268 12.4051C79.5268 12.4051 79.4678 11.9322 79.4619 11.5662H95.6458C95.6458 8.15555 94.7757 5.47404 93.0738 3.56739C91.2068 1.43804 88.5109 0.413025 84.9834 0.413025C81.7891 0.413025 79.2584 1.36788 77.4326 3.31113C75.5243 5.22083 74.61 7.56678 74.61 10.3947C74.61 13.5491 75.6069 16.011 77.5978 17.8078C79.4648 19.5314 81.9955 20.413 85.1898 20.413C88.0538 20.413 90.4163 19.6809 92.3246 18.2471C93.8171 17.0726 94.814 15.5686 95.3125 13.8053H90.4724C89.7379 15.6937 87.809 16.9933 85.1161 16.9933M85.1161 3.82364C88.4343 3.82364 90.4488 5.79435 90.7083 8.41181H79.5268C79.7863 5.79435 81.7979 3.82364 85.119 3.82364" fill="#94A0AC"/>
</svg>
