<svg width="32" height="32" viewBox="0 0 32 32" fill="none" xmlns="http://www.w3.org/2000/svg">
<path opacity="0.4" d="M11.487 2.18462L26.707 9.79463C33.5347 13.2085 33.5347 18.7915 26.707 22.2054L11.487 29.8154C1.24544 34.9361 -2.93295 30.74 2.18781 20.5162L3.7347 17.4402C4.17921 16.5334 4.17921 15.4844 3.7347 14.5776L2.18781 11.4838C-2.93295 1.26004 1.26322 -2.93613 11.487 2.18462Z" fill="#FAFAFA"/>
<path d="M20.9643 17.3341H11.3628C10.6338 17.3341 10.0293 16.7295 10.0293 16.0005C10.0293 15.2715 10.6338 14.667 11.3628 14.667H20.9643C21.6933 14.667 22.2979 15.2715 22.2979 16.0005C22.2979 16.7295 21.6933 17.3341 20.9643 17.3341Z" fill="#FAFAFA"/>
</svg>
