<svg width="161" height="37" viewBox="0 0 161 37" fill="none" xmlns="http://www.w3.org/2000/svg">
<path fill-rule="evenodd" clip-rule="evenodd" d="M66.142 10.2597H56.9501V26.4915H66.142V22.5389H61.8994V19.2362H64.4649V15.9623H61.8396V13.5424H66.142V10.2597Z" fill="#94A0AC"/>
<path fill-rule="evenodd" clip-rule="evenodd" d="M67.3826 10.2597V26.4959H67.243H72.9433V10.2597H67.3826Z" fill="#94A0AC"/>
<path fill-rule="evenodd" clip-rule="evenodd" d="M74.6337 10.2597V26.4959H74.5096H82.6602V22.5677L79.6029 22.57V10.2597H74.6337Z" fill="#94A0AC"/>
<path fill-rule="evenodd" clip-rule="evenodd" d="M83.0811 15.7894H87.78V19.0544H83.0811V15.7894Z" fill="#94A0AC"/>
<path fill-rule="evenodd" clip-rule="evenodd" d="M107.504 26.5203H103.151V14.7846C103.151 13.5668 101.177 13.4759 101.177 14.7912V26.5203H96.8456V14.7136C96.7083 13.5735 94.8318 13.6911 94.8429 14.7136C94.8517 15.7361 94.8429 26.5137 94.8429 26.5137H90.2769V13.3273C90.906 9.91591 96.8057 9.01094 98.9658 12.1783C103.507 7.91078 107.369 12.0453 107.52 13.2985C107.52 14.3986 107.508 26.5225 107.508 26.5225L107.504 26.5203Z" fill="#94A0AC"/>
<path fill-rule="evenodd" clip-rule="evenodd" d="M114.702 16.8696L111.37 16.8762C111.011 16.9161 109.491 17.4884 109.491 18.9967V24.6306C109.491 24.6306 109.487 26.496 111.37 26.496H114.702V24.1692H112.89C112.549 24.1692 112.247 24.1404 112.247 23.6236C112.247 22.6033 112.238 19.7597 112.238 19.7597C112.238 19.4048 112.52 19.1675 112.903 19.1675L114.7 19.1719V16.8696H114.702Z" fill="#94A0AC"/>
<path fill-rule="evenodd" clip-rule="evenodd" d="M117.256 10.2597V26.4959H117.132H125.283V22.5677L122.226 22.57V10.2597H117.256Z" fill="#94A0AC"/>
<path fill-rule="evenodd" clip-rule="evenodd" d="M129.457 10.2597H135.5L138.948 26.4959H134.131L133.484 22.57H131.165L130.443 26.4959H125.919L129.455 10.2597H129.457ZM131.978 15.5964H132.822L133.176 19.2118H131.694L131.978 15.5964Z" fill="#94A0AC"/>
<path fill-rule="evenodd" clip-rule="evenodd" d="M139.927 10.2597V26.4959H139.787H145.488V10.2597H139.927Z" fill="#94A0AC"/>
<path fill-rule="evenodd" clip-rule="evenodd" d="M147.481 10.2597V26.4959H151.928V19.7175L155.893 26.5913L156.06 26.4959H160.411V10.2597H155.933V17.6015L151.613 10.2597H147.481Z" fill="#94A0AC"/>
<path fill-rule="evenodd" clip-rule="evenodd" d="M37.831 10.2442H42.1843V21.98C42.1843 23.1977 44.1582 23.2887 44.1582 21.9733V10.2442H48.4894V22.051C48.6268 23.1911 50.5032 23.0735 50.4921 22.051C50.4833 21.0284 50.4921 10.2509 50.4921 10.2509H55.0581V23.4373C54.429 26.8486 48.5293 27.7536 46.3692 24.5862C41.8276 28.8538 37.8155 24.7858 37.8155 23.2288C37.8155 22.1286 37.8265 10.242 37.8265 10.242L37.831 10.2442Z" fill="#94A0AC"/>
<path fill-rule="evenodd" clip-rule="evenodd" d="M6.14813 10.4527H9.24087V21.9157C9.24087 23.1046 10.6432 23.1933 10.6432 21.909V10.4505H13.7205V21.9844C13.8179 23.0979 15.1516 22.9826 15.145 21.9844C15.1383 20.9863 15.145 10.4594 15.145 10.4594H18.3906V23.3397C17.9431 26.6734 13.7515 27.554 12.2162 24.462C8.98831 28.632 6.24561 24.5907 6.13927 23.3685C6.13927 22.2927 6.14813 10.4527 6.14813 10.4527Z" fill="white" stroke="#94A0AC" stroke-width="0.53" stroke-miterlimit="2.61"/>
<path fill-rule="evenodd" clip-rule="evenodd" d="M18.4017 26.3673H21.4944V14.9044C21.4944 13.7155 22.8968 13.6268 22.8968 14.911V26.3695H25.974V14.8356C26.0715 13.7221 27.4052 13.8375 27.3985 14.8356C27.3919 15.8337 27.3985 26.3607 27.3985 26.3607H30.6441V13.4804C30.1966 10.1466 26.005 9.26605 24.4697 12.358C21.2418 8.18807 18.4991 12.2294 18.3928 13.4515C18.3928 14.5273 18.4017 26.3673 18.4017 26.3673Z" fill="#94A0AC" stroke="#94A0AC" stroke-width="0.53" stroke-miterlimit="2.61"/>
<path fill-rule="evenodd" clip-rule="evenodd" d="M16.9262 17.0847H19.8727V19.132H16.9262V17.0847Z" fill="white" stroke="#94A0AC" stroke-width="0.53" stroke-miterlimit="2.61"/>
<path d="M3 3H33.7834V33.82H3V3Z" stroke="#94A0AC" stroke-width="5.32" stroke-miterlimit="2.61"/>
</svg>
